<?xml version="1.0" encoding="utf-8"?>
<!-- Generator: Adobe Illustrator 25.2.3, SVG Export Plug-In . SVG Version: 6.00 Build 0)  -->
<svg version="1.1" id="Layer_1" xmlns="http://www.w3.org/2000/svg" xmlns:xlink="http://www.w3.org/1999/xlink" x="0px" y="0px"
	 viewBox="0 0 180 72" style="enable-background:new 0 0 180 72;" xml:space="preserve">
<style type="text/css">
	.st0{fill-rule:evenodd;clip-rule:evenodd;fill:#7352A2;}
	.st1{fill-rule:evenodd;clip-rule:evenodd;fill:#9F79B6;}
	.st2{fill:#34383C;}
</style>
<g>
	<path class="st0" d="M26.3,10c1,1.4,2.7,1.9,3.7,1.2c1-0.7,1.1-2.5,0.2-3.9c-1-1.5-2.7-2.1-3.8-1.4C25.3,6.7,25.3,8.6,26.3,10
		 M40.4,4.1c0.4,1.6,1.6,2.7,2.8,2.6c1.1-0.2,1.8-1.5,1.5-3.1c-0.3-1.6-1.6-2.8-2.8-2.7C40.6,1,40,2.4,40.4,4.1 M53.8,4.5
		c-0.2,1.4,0.5,2.8,1.5,3.1c1,0.3,1.9-0.5,2.1-1.9C57.6,4.4,57,3,56,2.6C55,2.2,54,3.1,53.8,4.5 M64.2,10c-0.4,0.9-0.3,2.1,0.3,2.7
		c0.6,0.5,1.4,0.3,1.8-0.6c0.4-0.9,0.3-2.1-0.2-2.7C65.5,8.8,64.6,9,64.2,10 M71,16.9c-0.5,0.5-0.6,1.4-0.4,2
		c0.3,0.6,0.8,0.6,1.3,0.1c0.5-0.5,0.6-1.4,0.4-2C72,16.5,71.4,16.4,71,16.9 M25.8,23.7c1.2,0.5,2.4,0.1,2.8-0.9
		c0.4-1-0.2-2.1-1.4-2.7c-1.2-0.5-2.5-0.2-2.9,0.8C23.9,21.9,24.6,23.2,25.8,23.7 M36.8,13.5c0.5,1.2,1.7,1.7,2.6,1.4
		c0.9-0.4,1.2-1.6,0.8-2.8c-0.5-1.2-1.6-1.8-2.6-1.5C36.6,11,36.3,12.3,36.8,13.5 M47.9,10.5c0.1,1.2,0.8,2.1,1.7,2.2
		c0.9,0,1.5-0.9,1.5-2c0-1.2-0.8-2.2-1.7-2.2C48.5,8.4,47.8,9.3,47.9,10.5 M53.4,10.9c-0.1,1,0.4,2,1.1,2.2c0.7,0.2,1.4-0.4,1.6-1.4
		c0.1-1-0.3-2-1.1-2.3C54.2,9.2,53.5,9.8,53.4,10.9 M58.1,12.5c-0.3,0.9,0,1.8,0.7,2.1c0.6,0.3,1.3-0.1,1.5-0.9
		c0.3-0.8,0-1.8-0.6-2.2C59,11.2,58.3,11.6,58.1,12.5 M36.3,22.2c0.6,0.8,1.5,1,2.2,0.5c0.7-0.5,0.8-1.5,0.2-2.3
		c-0.5-0.8-1.5-1.1-2.2-0.6C35.9,20.4,35.8,21.4,36.3,22.2 M44.2,17.2c0.2,0.9,1,1.5,1.7,1.3c0.7-0.2,1.2-1,1-1.9
		c-0.2-0.9-1-1.6-1.7-1.4C44.4,15.3,44,16.2,44.2,17.2 M53,15.6c-0.1,0.8,0.3,1.5,0.9,1.6c0.6,0.1,1.1-0.4,1.2-1.1
		c0.1-0.8-0.3-1.5-0.9-1.6C53.6,14.3,53.1,14.8,53,15.6 M73.1,19.7c-0.3,0.3-0.4,0.9-0.3,1.3c0.2,0.4,0.6,0.4,0.9,0.1
		c0.3-0.3,0.4-0.9,0.3-1.3C73.9,19.5,73.5,19.4,73.1,19.7 M17.4,27.8c1.5,0.5,3,0,3.3-1.1c0.4-1.2-0.6-2.7-2.1-3.3
		c-1.6-0.6-3.2-0.1-3.5,1.1C14.8,25.8,15.8,27.3,17.4,27.8 M62.3,8.5c-0.5,2.8,0.1,4.1,1,5.3c0.1,0,0.2,0.1,0.3,0.2c0,0,0,0,0,0
		c1.5,1.4,2.8,1.3,4.4-0.3c0.5-0.5,1.1-0.5,1.5,0.1c0.4,0.6,0.3,1.7-0.1,2.5c-0.5,0.7-1.1,0.8-1.6,0.3c-1.6-1.2-2.4-1.3-4.5-0.1
		c-0.3,0.2-0.7,0.2-1,0c-0.4-0.3-0.5-0.9-0.4-1.4l0,0c0,0,0-0.1,0-0.1c0.3-1.7,0-3.6-1.8-5.4c-0.7-0.5-1-1.8-0.7-2.8
		c0.3-1.2,1.3-1.7,2.1-1.2C62.2,6,62.5,7,62.4,8v0C62.4,8.2,62.4,8.3,62.3,8.5L62.3,8.5z M43.5,8.9c-2.2,0.4-4.9-0.9-5.7-3.5
		c0-0.1-0.1-0.2-0.1-0.3v0c0-0.1-0.1-0.2-0.1-0.4c-0.7-1.6-2.2-2.6-3.4-2.1c-1.2,0.5-1.6,2.2-0.9,3.8c0.5,1.2,1.6,2,2.5,2.1l0,0
		c0,0,0.1,0,0.1,0c3.2,0.2,5.1,0.9,6.5,3.2c0.3,0.9,1,1.5,1.7,1.6v0c2.3,0.4,4.1,1.4,4.6,3c0.2,0.6,0.6,1,1.2,1
		c0.6,0,1.1-0.6,1.1-1.4c0-0.8-0.6-1.5-1.2-1.5c0,0-0.1,0-0.1,0h0c-0.1,0-0.1,0-0.2,0c-1.8,0.3-3.7-1.2-3.8-2.5c0-0.1,0-0.2,0.1-0.4
		c0.7-2.8,1.6-4.3,4.1-5.2c0.1,0,0.2,0,0.3-0.1l0,0c0.7-0.3,1.2-1.2,1.2-2.4c0-1.5-1-2.9-2.1-3.1c-1-0.1-1.8,0.7-1.9,2l0,0v0
		c0,0.2,0,0.3,0,0.5c-0.1,3.4-0.6,5.1-3.7,5.5C43.6,8.9,43.6,8.9,43.5,8.9C43.5,8.9,43.5,8.9,43.5,8.9 M34.2,17.3L34.2,17.3
		L34.2,17.3L34.2,17.3L34.2,17.3z M34.2,17.4L34.2,17.4c1.2-0.5,3.7-0.4,5.8,2.1c0.4,0.6,1.2,0.9,1.8,0.6c0.7-0.3,1-1.3,0.6-2.2
		c-0.4-0.9-1.3-1.4-2-1c0,0-0.1,0-0.1,0c-1.9,0.6-4.3-0.5-6-2.8c0-0.1-0.1-0.1-0.1-0.2l0,0c-0.6-0.8-1.6-1.2-2.4-0.9v0l0,0
		c-0.1,0-0.2,0.1-0.2,0.1c-3.5,1.5-5.3,0.9-7.1-1.5c-0.2-0.4-0.5-0.7-0.9-1c-1.4-1.1-3.2-1.2-4-0.1c-0.8,1.1-0.3,2.9,1.2,4
		c0.8,0.6,1.8,0.9,2.6,0.7h0c0.1,0,0.2,0,0.3-0.1c1.8-0.4,5.7-1.2,7.5,1.2c0,0,0,0.1,0.1,0.1c0.1,0.1,0.1,0.2,0.2,0.2h0
		c1.6,3.1,1,5-0.3,7.3c0,0.1-0.1,0.1-0.1,0.2c-0.3,0.8,0.1,1.7,1,2.2c0.9,0.4,1.8,0.1,2.2-0.6c0.2-0.5,0.1-1.1-0.2-1.5
		C32.2,21.5,32.8,18,34.2,17.4 M17.1,20.2c1.4,0.9,3.1,0.7,3.7-0.4c0.6-1.1,0-2.8-1.4-3.7c-1.5-1-3.2-0.8-3.9,0.4
		C14.9,17.6,15.6,19.3,17.1,20.2"/>
	<path class="st1" d="M27.5,65.4c0.7-1.6,0.4-3.3-0.8-3.8c-1.1-0.6-2.7,0.2-3.5,1.7c-0.8,1.6-0.5,3.4,0.7,4
		C25.1,67.9,26.7,67,27.5,65.4 M15.4,56c1.2-1.1,1.6-2.8,0.9-3.7c-0.7-0.9-2.2-0.8-3.5,0.2c-1.2,1.1-1.7,2.8-1,3.7
		C12.6,57.3,14.2,57.2,15.4,56 M9.2,44c1.3-0.5,2.2-1.8,2-2.8c-0.2-1-1.4-1.4-2.6-0.9c-1.3,0.5-2.3,1.7-2.1,2.8
		C6.7,44.2,7.9,44.6,9.2,44 M9,32.3c1-0.1,2-0.8,2.2-1.5c0.2-0.8-0.4-1.3-1.4-1.3c-1,0.1-2,0.7-2.2,1.5C7.3,31.8,7.9,32.4,9,32.3
		 M11.8,23.1c0.7,0.2,1.6-0.1,1.9-0.6c0.4-0.5,0.1-1-0.5-1.2c-0.7-0.2-1.5,0.1-1.9,0.6C10.8,22.3,11.1,22.9,11.8,23.1 M39.6,59.2
		c-0.2-1.3-1.1-2.2-2.1-2c-1,0.1-1.8,1.2-1.7,2.5C36,61,36.9,62,38,61.8C39,61.7,39.8,60.5,39.6,59.2 M25.4,54.5
		c0.8-1,0.7-2.3-0.1-2.9c-0.8-0.6-2-0.3-2.8,0.7c-0.8,1-0.8,2.3,0,3C23.3,55.9,24.6,55.6,25.4,54.5 M17.4,46.3
		c1-0.6,1.5-1.8,1.1-2.6c-0.4-0.8-1.5-0.9-2.5-0.3c-1,0.6-1.5,1.7-1.1,2.5C15.2,46.8,16.3,47,17.4,46.3 M15,41.4
		c1-0.4,1.6-1.3,1.4-2.1c-0.2-0.7-1.1-1-2-0.7c-0.9,0.4-1.6,1.3-1.4,2.1C13.1,41.5,14,41.8,15,41.4 M14.1,36.5
		c0.9-0.2,1.6-0.9,1.6-1.6c0-0.7-0.7-1.1-1.6-0.9c-0.9,0.2-1.6,0.9-1.6,1.6C12.5,36.3,13.2,36.7,14.1,36.5 M33.2,50.7
		c0.4-0.9,0.1-1.8-0.6-2.2c-0.7-0.3-1.7,0.1-2.1,0.9c-0.4,0.9-0.2,1.9,0.6,2.2C31.8,52,32.8,51.6,33.2,50.7 M25,46.3
		c0.7-0.6,0.8-1.6,0.3-2.2c-0.5-0.6-1.5-0.5-2.2,0.1c-0.7,0.6-0.9,1.6-0.4,2.2C23.3,47,24.3,46.9,25,46.3 M19.3,39.4
		c0.7-0.3,1.1-1,1-1.6c-0.2-0.6-0.9-0.8-1.6-0.5c-0.7,0.3-1.2,1-1,1.6C17.9,39.5,18.6,39.7,19.3,39.4 M13.1,19.8
		c0.5,0.1,1-0.1,1.3-0.4c0.2-0.3,0.1-0.7-0.4-0.8c-0.4-0.1-1,0.1-1.3,0.4C12.5,19.3,12.7,19.7,13.1,19.8 M47.4,64.5
		c-0.3-1.6-1.4-2.6-2.6-2.4c-1.2,0.3-2,1.8-1.8,3.4c0.2,1.7,1.4,2.8,2.7,2.5C46.9,67.8,47.6,66.2,47.4,64.5 M8.6,34.7
		c2.7-0.9,3.5-2.1,4.1-3.4c0-0.1,0-0.2,0-0.3c0,0,0,0,0-0.1c0.5-2-0.2-3.1-2.4-3.7c-0.7-0.2-1-0.7-0.7-1.4c0.4-0.7,1.4-1.1,2.2-1.1
		c0.8,0.1,1.2,0.6,1,1.2c-0.3,2,0,2.7,2.1,3.9c0.4,0.2,0.5,0.5,0.5,0.9c-0.1,0.5-0.5,0.9-1,1.1l0,0c0,0-0.1,0-0.1,0
		c-1.6,0.6-3.1,1.8-3.8,4.2c-0.1,0.8-1.1,1.7-2.2,2c-1.2,0.3-2.1-0.3-2-1.2c0.1-0.8,0.8-1.5,1.7-1.9l0,0C8.2,34.8,8.4,34.7,8.6,34.7
		L8.6,34.7z M18.2,50.9c1.4,1.7,1.6,4.8-0.2,6.7c-0.1,0.1-0.2,0.1-0.2,0.2c-0.1,0.1-0.2,0.2-0.3,0.3c-1.1,1.4-1.2,3.2-0.2,4
		c1,0.8,2.7,0.3,3.7-1.1c0.8-1.1,1-2.3,0.6-3.2l0,0c0,0,0-0.1-0.1-0.1c-1.4-2.9-1.7-4.9-0.4-7.2c0.6-0.7,0.8-1.6,0.6-2.3v0
		c-0.8-2.2-0.8-4.3,0.4-5.5c0.4-0.4,0.6-1.1,0.3-1.5c-0.3-0.6-1.1-0.7-1.8-0.3c-0.7,0.4-1,1.2-0.7,1.8c0,0,0,0.1,0.1,0.1l0,0
		c0,0.1,0.1,0.1,0.1,0.1c1.2,1.4,0.8,3.8-0.3,4.5c-0.1,0-0.2,0.1-0.4,0.1c-2.7,0.8-4.6,0.7-6.5-1.1c-0.1-0.1-0.1-0.1-0.2-0.2v0
		c-0.6-0.5-1.7-0.5-2.7,0.1c-1.3,0.8-2.1,2.3-1.7,3.3c0.4,0.9,1.5,1.2,2.7,0.7l0,0l0,0c0.2-0.1,0.3-0.1,0.5-0.2c3-1.5,4.7-2,6.6,0.5
		C18.1,50.8,18.1,50.8,18.2,50.9C18.1,50.9,18.1,50.9,18.2,50.9 M30,55L30,55L30,55L30,55L30,55z M30,54.9L30,54.9
		c-1.1-0.8-2.1-3.1-1-6.1c0.3-0.7,0.2-1.5-0.4-1.9c-0.6-0.5-1.6-0.2-2.2,0.5c-0.6,0.8-0.6,1.8,0.1,2.3c0,0,0,0,0.1,0
		c1.5,1.3,1.6,4,0.5,6.6c0,0.1-0.1,0.1-0.1,0.2v0c-0.4,1-0.3,2,0.4,2.5l0,0c0.1,0.1,0.1,0.1,0.2,0.1c3,2.3,3.4,4.2,2.1,7
		c-0.2,0.4-0.4,0.8-0.5,1.3c-0.3,1.8,0.5,3.4,1.9,3.6c1.4,0.2,2.7-1.2,2.9-3c0.1-1-0.1-2-0.6-2.6l0,0c-0.1-0.1-0.1-0.2-0.2-0.2
		c-1.2-1.4-3.8-4.4-2.6-7.1c0,0,0-0.1,0.1-0.1c0-0.1,0.1-0.2,0.1-0.3c1.9-2.9,3.9-3.3,6.5-3.3c0.1,0,0.1,0,0.2,0
		c0.8-0.1,1.5-0.9,1.4-1.9c-0.1-1-0.8-1.7-1.6-1.6c-0.5,0-1,0.4-1.2,0.9C34.6,54.7,31.2,55.9,30,54.9 M40.8,68.4
		c0.1-1.7-0.9-3-2.2-3c-1.3,0-2.4,1.4-2.6,3.1c-0.1,1.8,0.9,3.2,2.2,3.2C39.6,71.7,40.8,70.2,40.8,68.4"/>
	<path class="st2" d="M165.7,28.7v6h-1.3v-8.5h1.1l4.8,6.1v-6.1h1.3v8.5h-1.1L165.7,28.7z M156.2,30.5c0,0.4,0.1,0.8,0.2,1.2
		c0.1,0.4,0.3,0.7,0.5,1c0.2,0.3,0.5,0.5,0.9,0.7c0.3,0.2,0.7,0.3,1.1,0.3c0.4,0,0.8-0.1,1.1-0.3c0.3-0.2,0.6-0.4,0.8-0.7
		c0.2-0.3,0.4-0.6,0.5-1c0.1-0.4,0.2-0.7,0.2-1.1c0-0.4-0.1-0.8-0.2-1.2c-0.1-0.4-0.3-0.7-0.5-1c-0.2-0.3-0.5-0.5-0.8-0.7
		c-0.3-0.2-0.7-0.3-1.1-0.3c-0.4,0-0.8,0.1-1.1,0.3c-0.3,0.2-0.6,0.4-0.8,0.7c-0.2,0.3-0.4,0.6-0.5,1
		C156.3,29.7,156.2,30.1,156.2,30.5 M158.9,34.8c-0.6,0-1.2-0.1-1.7-0.4c-0.5-0.2-0.9-0.6-1.3-1c-0.4-0.4-0.6-0.9-0.8-1.4
		c-0.2-0.5-0.3-1-0.3-1.6c0-0.6,0.1-1.1,0.3-1.6c0.2-0.5,0.5-1,0.9-1.4c0.4-0.4,0.8-0.7,1.3-0.9c0.5-0.2,1-0.4,1.6-0.4
		c0.6,0,1.2,0.1,1.7,0.4c0.5,0.2,0.9,0.6,1.3,1c0.4,0.4,0.6,0.9,0.8,1.4c0.2,0.5,0.3,1,0.3,1.6c0,0.6-0.1,1.1-0.3,1.6
		c-0.2,0.5-0.5,1-0.9,1.4c-0.4,0.4-0.8,0.7-1.3,0.9C160,34.7,159.5,34.8,158.9,34.8 M152.1,26.2h1.3v8.5h-1.3V26.2z M151,27.4h-2.8
		v7.3h-1.3v-7.3H144v-1.2h7V27.4z M142,31.4l-1.4-3.6l-1.4,3.6H142z M140.1,26.2h1.2l3.3,8.5h-1.4l-0.9-2.3H139l-0.9,2.3h-1.4
		L140.1,26.2z M134.3,34.7v-6.1l-2.5,4.6H131l-2.5-4.6v6.1h-1.3v-8.5h1.4l2.8,5.2l2.8-5.2h1.4v8.5H134.3z M120.6,30.6h2.3
		c0.2,0,0.4,0,0.5-0.1c0.2-0.1,0.3-0.2,0.4-0.3c0.1-0.1,0.2-0.3,0.3-0.5c0.1-0.2,0.1-0.4,0.1-0.6c0-0.2,0-0.4-0.1-0.6
		c-0.1-0.2-0.2-0.4-0.3-0.5c-0.1-0.1-0.3-0.3-0.4-0.3c-0.2-0.1-0.3-0.1-0.5-0.1h-2.3V30.6z M119.3,34.7v-8.5h3.7
		c0.4,0,0.7,0.1,1.1,0.2c0.3,0.2,0.6,0.4,0.8,0.6c0.2,0.3,0.4,0.6,0.5,0.9c0.1,0.3,0.2,0.7,0.2,1c0,0.3,0,0.6-0.1,0.8
		c-0.1,0.3-0.2,0.5-0.3,0.7c-0.1,0.2-0.3,0.4-0.5,0.6c-0.2,0.2-0.4,0.3-0.7,0.4l2,3.2h-1.5l-1.8-2.9h-2v2.9H119.3z M111.1,30.5
		c0,0.4,0.1,0.8,0.2,1.2c0.1,0.4,0.3,0.7,0.5,1c0.2,0.3,0.5,0.5,0.9,0.7c0.3,0.2,0.7,0.3,1.1,0.3c0.4,0,0.8-0.1,1.1-0.3
		c0.3-0.2,0.6-0.4,0.8-0.7c0.2-0.3,0.4-0.6,0.5-1c0.1-0.4,0.2-0.7,0.2-1.1c0-0.4-0.1-0.8-0.2-1.2c-0.1-0.4-0.3-0.7-0.5-1
		c-0.2-0.3-0.5-0.5-0.8-0.7c-0.3-0.2-0.7-0.3-1.1-0.3c-0.4,0-0.8,0.1-1.1,0.3c-0.3,0.2-0.6,0.4-0.8,0.7c-0.2,0.3-0.4,0.6-0.5,1
		C111.2,29.7,111.1,30.1,111.1,30.5 M113.8,34.8c-0.6,0-1.2-0.1-1.7-0.4c-0.5-0.2-0.9-0.6-1.3-1c-0.4-0.4-0.6-0.9-0.8-1.4
		c-0.2-0.5-0.3-1-0.3-1.6c0-0.6,0.1-1.1,0.3-1.6c0.2-0.5,0.5-1,0.9-1.4c0.4-0.4,0.8-0.7,1.3-0.9c0.5-0.2,1-0.4,1.6-0.4
		c0.6,0,1.2,0.1,1.7,0.4c0.5,0.2,0.9,0.6,1.3,1c0.4,0.4,0.6,0.9,0.8,1.4c0.2,0.5,0.3,1,0.3,1.6c0,0.6-0.1,1.1-0.3,1.6
		c-0.2,0.5-0.5,1-0.9,1.4c-0.4,0.4-0.8,0.7-1.3,0.9C114.9,34.7,114.4,34.8,113.8,34.8 M103.6,34.7v-8.5h5.6v1.2h-4.3v2.5h3.6v1.1
		h-3.6v3.7H103.6z M95.8,28.7v6h-1.3v-8.5h1.1l4.8,6.1v-6.1h1.3v8.5h-1.1L95.8,28.7z M91.2,26.2h1.3v8.5h-1.3V26.2z M81.6,34.7v-8.5
		h1.3v7.3h4.5v1.2H81.6z M78,31.4l-1.4-3.6l-1.4,3.6H78z M76,26.2h1.2l3.3,8.5h-1.4l-0.9-2.3H75l-0.9,2.3h-1.4L76,26.2z M67.1,30.6
		h2.3c0.2,0,0.4,0,0.5-0.1c0.2-0.1,0.3-0.2,0.4-0.3c0.1-0.1,0.2-0.3,0.3-0.5c0.1-0.2,0.1-0.4,0.1-0.6c0-0.2,0-0.4-0.1-0.6
		c-0.1-0.2-0.2-0.4-0.3-0.5c-0.1-0.1-0.3-0.3-0.4-0.3c-0.2-0.1-0.3-0.1-0.5-0.1h-2.3V30.6z M65.8,34.7v-8.5h3.7
		c0.4,0,0.7,0.1,1.1,0.2c0.3,0.2,0.6,0.4,0.8,0.6c0.2,0.3,0.4,0.6,0.5,0.9c0.1,0.3,0.2,0.7,0.2,1c0,0.3,0,0.6-0.1,0.8
		c-0.1,0.3-0.2,0.5-0.3,0.7c-0.1,0.2-0.3,0.4-0.5,0.6c-0.2,0.2-0.4,0.3-0.7,0.4l2,3.2h-1.5l-1.8-2.9h-2v2.9H65.8z M60.3,33.6
		c0.4,0,0.8-0.1,1.1-0.3c0.3-0.2,0.5-0.4,0.7-0.7c0.2-0.3,0.3-0.6,0.4-1c0.1-0.4,0.1-0.7,0.1-1.1v-4.3H64v4.3c0,0.6-0.1,1.1-0.2,1.6
		c-0.1,0.5-0.3,1-0.6,1.3c-0.3,0.4-0.7,0.7-1.1,0.9c-0.5,0.2-1,0.3-1.7,0.3c-0.7,0-1.2-0.1-1.7-0.4c-0.5-0.2-0.8-0.5-1.1-0.9
		c-0.3-0.4-0.5-0.8-0.6-1.4c-0.1-0.5-0.2-1-0.2-1.6v-4.3H58v4.3c0,0.4,0,0.8,0.1,1.1c0.1,0.4,0.2,0.7,0.4,1c0.2,0.3,0.4,0.5,0.7,0.7
		C59.5,33.5,59.9,33.6,60.3,33.6 M55.4,33.5v1.2h-5.8v-8.5h5.7v1.2h-4.4v2.4h3.8v1.1h-3.8v2.6H55.4z M41.8,28.7v6h-1.3v-8.5h1.1
		l4.8,6.1v-6.1h1.3v8.5h-1.1L41.8,28.7z"/>
	<path class="st2" d="M170.7,40.5c-0.1-0.1-0.2-0.2-0.3-0.3c-0.1-0.1-0.3-0.2-0.5-0.3c-0.2-0.1-0.4-0.2-0.7-0.2
		c-0.2-0.1-0.5-0.1-0.7-0.1c-0.6,0-1,0.1-1.2,0.3c-0.3,0.2-0.4,0.5-0.4,0.9c0,0.2,0,0.4,0.1,0.5c0.1,0.1,0.2,0.2,0.4,0.3
		c0.2,0.1,0.4,0.2,0.6,0.3c0.3,0.1,0.6,0.2,0.9,0.2c0.4,0.1,0.8,0.2,1.2,0.3c0.3,0.1,0.6,0.3,0.9,0.5c0.2,0.2,0.4,0.4,0.5,0.7
		c0.1,0.3,0.2,0.6,0.2,1c0,0.4-0.1,0.8-0.2,1.1c-0.2,0.3-0.4,0.6-0.7,0.8c-0.3,0.2-0.6,0.3-1,0.4c-0.4,0.1-0.8,0.1-1.2,0.1
		c-0.6,0-1.3-0.1-1.8-0.3c-0.6-0.2-1.1-0.5-1.6-0.8l0.6-1.1c0.1,0.1,0.3,0.2,0.4,0.3c0.2,0.1,0.4,0.2,0.7,0.3
		c0.3,0.1,0.5,0.2,0.8,0.3c0.3,0.1,0.6,0.1,0.9,0.1c0.5,0,0.9-0.1,1.2-0.3c0.3-0.2,0.4-0.4,0.4-0.8c0-0.2-0.1-0.4-0.2-0.5
		c-0.1-0.1-0.3-0.3-0.5-0.4c-0.2-0.1-0.4-0.2-0.7-0.3c-0.3-0.1-0.6-0.2-1-0.3c-0.4-0.1-0.8-0.2-1.1-0.3c-0.3-0.1-0.6-0.3-0.8-0.4
		c-0.2-0.2-0.4-0.4-0.5-0.6c-0.1-0.2-0.2-0.5-0.2-0.8c0-0.4,0.1-0.8,0.2-1.1c0.2-0.3,0.4-0.6,0.6-0.8c0.3-0.2,0.6-0.4,1-0.5
		c0.4-0.1,0.8-0.2,1.2-0.2c0.6,0,1.1,0.1,1.6,0.3c0.5,0.2,0.9,0.4,1.3,0.7L170.7,40.5z M162.4,46.9v-6l-2.5,4.6h-0.7l-2.5-4.6v6
		h-1.3v-8.4h1.4l2.8,5.1l2.8-5.1h1.4v8.4H162.4z M153.9,45.7v1.2h-5.8v-8.4h5.6v1.2h-4.3v2.4h3.7v1.1h-3.7v2.6H153.9z M146.9,39.7
		h-2.8v7.2h-1.3v-7.2H140v-1.2h6.9V39.7z M138.4,40.5c-0.1-0.1-0.2-0.2-0.3-0.3c-0.1-0.1-0.3-0.2-0.5-0.3c-0.2-0.1-0.4-0.2-0.7-0.2
		c-0.2-0.1-0.5-0.1-0.7-0.1c-0.6,0-1,0.1-1.2,0.3c-0.3,0.2-0.4,0.5-0.4,0.9c0,0.2,0,0.4,0.1,0.5c0.1,0.1,0.2,0.2,0.4,0.3
		c0.2,0.1,0.4,0.2,0.7,0.3c0.3,0.1,0.6,0.2,0.9,0.2c0.4,0.1,0.8,0.2,1.2,0.3c0.3,0.1,0.6,0.3,0.9,0.5c0.2,0.2,0.4,0.4,0.5,0.7
		c0.1,0.3,0.2,0.6,0.2,1c0,0.4-0.1,0.8-0.2,1.1c-0.2,0.3-0.4,0.6-0.7,0.8c-0.3,0.2-0.6,0.3-1,0.4c-0.4,0.1-0.8,0.1-1.2,0.1
		c-0.6,0-1.3-0.1-1.8-0.3c-0.6-0.2-1.1-0.5-1.6-0.8l0.6-1.1c0.1,0.1,0.3,0.2,0.4,0.3c0.2,0.1,0.4,0.2,0.7,0.3
		c0.3,0.1,0.5,0.2,0.8,0.3c0.3,0.1,0.6,0.1,0.9,0.1c0.5,0,0.9-0.1,1.2-0.3c0.3-0.2,0.4-0.4,0.4-0.8c0-0.2-0.1-0.4-0.2-0.5
		c-0.1-0.1-0.3-0.3-0.5-0.4c-0.2-0.1-0.4-0.2-0.7-0.3c-0.3-0.1-0.6-0.2-1-0.3c-0.4-0.1-0.8-0.2-1.1-0.3c-0.3-0.1-0.6-0.3-0.8-0.4
		c-0.2-0.2-0.4-0.4-0.5-0.6c-0.1-0.2-0.2-0.5-0.2-0.8c0-0.4,0.1-0.8,0.2-1.1c0.2-0.3,0.4-0.6,0.6-0.8c0.3-0.2,0.6-0.4,1-0.5
		c0.4-0.1,0.8-0.2,1.2-0.2c0.6,0,1.1,0.1,1.6,0.3c0.5,0.2,0.9,0.4,1.3,0.7L138.4,40.5z M126.4,38.5l2.3,4.2l2.3-4.2h1.5l-3.1,5.4v3
		h-1.3v-3l-3.1-5.4H126.4z M123.6,40.5c-0.1-0.1-0.2-0.2-0.3-0.3c-0.1-0.1-0.3-0.2-0.5-0.3c-0.2-0.1-0.4-0.2-0.7-0.2
		c-0.2-0.1-0.5-0.1-0.7-0.1c-0.6,0-1,0.1-1.2,0.3c-0.3,0.2-0.4,0.5-0.4,0.9c0,0.2,0,0.4,0.1,0.5c0.1,0.1,0.2,0.2,0.4,0.3
		c0.2,0.1,0.4,0.2,0.7,0.3c0.3,0.1,0.6,0.2,0.9,0.2c0.4,0.1,0.8,0.2,1.2,0.3c0.3,0.1,0.6,0.3,0.9,0.5c0.2,0.2,0.4,0.4,0.5,0.7
		c0.1,0.3,0.2,0.6,0.2,1c0,0.4-0.1,0.8-0.2,1.1c-0.2,0.3-0.4,0.6-0.7,0.8c-0.3,0.2-0.6,0.3-1,0.4c-0.4,0.1-0.8,0.1-1.2,0.1
		c-0.6,0-1.3-0.1-1.8-0.3c-0.6-0.2-1.1-0.5-1.6-0.8l0.6-1.1c0.1,0.1,0.3,0.2,0.4,0.3c0.2,0.1,0.4,0.2,0.7,0.3
		c0.3,0.1,0.5,0.2,0.8,0.3c0.3,0.1,0.6,0.1,0.9,0.1c0.5,0,0.9-0.1,1.2-0.3c0.3-0.2,0.4-0.4,0.4-0.8c0-0.2-0.1-0.4-0.2-0.5
		c-0.1-0.1-0.3-0.3-0.5-0.4c-0.2-0.1-0.4-0.2-0.7-0.3c-0.3-0.1-0.6-0.2-1-0.3c-0.4-0.1-0.8-0.2-1.1-0.3c-0.3-0.1-0.6-0.3-0.8-0.4
		c-0.2-0.2-0.4-0.4-0.5-0.6c-0.1-0.2-0.2-0.5-0.2-0.8c0-0.4,0.1-0.8,0.2-1.1c0.2-0.3,0.4-0.6,0.6-0.8c0.3-0.2,0.6-0.4,1-0.5
		c0.4-0.1,0.8-0.2,1.2-0.2c0.6,0,1.1,0.1,1.6,0.3c0.5,0.2,0.9,0.4,1.3,0.7L123.6,40.5z M113,45.9c-0.7,0.7-1.5,1.1-2.4,1.1
		c-0.6,0-1.1-0.1-1.6-0.3c-0.5-0.2-0.9-0.5-1.3-0.9c-0.4-0.4-0.6-0.8-0.8-1.4c-0.2-0.5-0.3-1.1-0.3-1.6c0-0.6,0.1-1.1,0.3-1.6
		c0.2-0.5,0.5-1,0.8-1.3c0.4-0.4,0.8-0.7,1.3-0.9c0.5-0.2,1-0.3,1.6-0.3c0.8,0,1.5,0.2,2,0.5c0.5,0.3,1,0.8,1.2,1.3l-1,0.7
		c-0.2-0.5-0.5-0.8-0.9-1c-0.4-0.2-0.8-0.3-1.3-0.3c-0.4,0-0.8,0.1-1.1,0.3c-0.3,0.2-0.6,0.4-0.8,0.7c-0.2,0.3-0.4,0.6-0.5,1
		c-0.1,0.4-0.2,0.8-0.2,1.2c0,0.4,0.1,0.8,0.2,1.2c0.1,0.4,0.3,0.7,0.6,1c0.2,0.3,0.5,0.5,0.9,0.7c0.3,0.2,0.7,0.2,1.1,0.2
		c0.4,0,0.8-0.1,1.2-0.3c0.4-0.2,0.8-0.5,1.1-0.9v-0.9h-1.8v-1h2.9v4.2H113V45.9z M99.3,41v5.9H98v-8.4h1l4.8,6v-6h1.3v8.4h-1.1
		L99.3,41z M94.7,38.5H96v8.4h-1.3V38.5z M92.3,40.5c-0.1-0.1-0.2-0.2-0.3-0.3c-0.1-0.1-0.3-0.2-0.5-0.3c-0.2-0.1-0.4-0.2-0.7-0.2
		c-0.2-0.1-0.5-0.1-0.7-0.1c-0.6,0-1,0.1-1.2,0.3c-0.3,0.2-0.4,0.5-0.4,0.9c0,0.2,0,0.4,0.1,0.5c0.1,0.1,0.2,0.2,0.4,0.3
		c0.2,0.1,0.4,0.2,0.6,0.3c0.3,0.1,0.6,0.2,0.9,0.2c0.4,0.1,0.8,0.2,1.2,0.3c0.3,0.1,0.6,0.3,0.9,0.5c0.2,0.2,0.4,0.4,0.5,0.7
		c0.1,0.3,0.2,0.6,0.2,1c0,0.4-0.1,0.8-0.2,1.1c-0.2,0.3-0.4,0.6-0.7,0.8c-0.3,0.2-0.6,0.3-1,0.4C91,47,90.6,47,90.2,47
		c-0.6,0-1.3-0.1-1.8-0.3c-0.6-0.2-1.1-0.5-1.6-0.8l0.6-1.1c0.1,0.1,0.3,0.2,0.4,0.3c0.2,0.1,0.4,0.2,0.7,0.3
		c0.3,0.1,0.5,0.2,0.8,0.3c0.3,0.1,0.6,0.1,0.9,0.1c0.5,0,0.9-0.1,1.2-0.3c0.3-0.2,0.4-0.4,0.4-0.8c0-0.2-0.1-0.4-0.2-0.5
		c-0.1-0.1-0.3-0.3-0.5-0.4c-0.2-0.1-0.4-0.2-0.7-0.3c-0.3-0.1-0.6-0.2-1-0.3c-0.4-0.1-0.8-0.2-1.1-0.3c-0.3-0.1-0.6-0.3-0.8-0.4
		c-0.2-0.2-0.4-0.4-0.5-0.6C87.1,41.6,87,41.4,87,41c0-0.4,0.1-0.8,0.2-1.1c0.2-0.3,0.4-0.6,0.6-0.8c0.3-0.2,0.6-0.4,1-0.5
		c0.4-0.1,0.8-0.2,1.2-0.2c0.6,0,1.1,0.1,1.6,0.3c0.5,0.2,0.9,0.4,1.3,0.7L92.3,40.5z M85,40.5c-0.1-0.1-0.2-0.2-0.3-0.3
		c-0.2-0.1-0.3-0.2-0.5-0.3c-0.2-0.1-0.4-0.2-0.7-0.2c-0.2-0.1-0.5-0.1-0.7-0.1c-0.6,0-1,0.1-1.2,0.3c-0.3,0.2-0.4,0.5-0.4,0.9
		c0,0.2,0,0.4,0.1,0.5c0.1,0.1,0.2,0.2,0.4,0.3c0.2,0.1,0.4,0.2,0.7,0.3c0.3,0.1,0.6,0.2,0.9,0.2c0.4,0.1,0.8,0.2,1.2,0.3
		c0.3,0.1,0.6,0.3,0.9,0.5c0.2,0.2,0.4,0.4,0.5,0.7c0.1,0.3,0.2,0.6,0.2,1c0,0.4-0.1,0.8-0.2,1.1c-0.2,0.3-0.4,0.6-0.7,0.8
		c-0.3,0.2-0.6,0.3-1,0.4C83.7,47,83.3,47,82.9,47c-0.6,0-1.3-0.1-1.8-0.3c-0.6-0.2-1.1-0.5-1.6-0.8l0.6-1.1
		c0.1,0.1,0.2,0.2,0.4,0.3c0.2,0.1,0.4,0.2,0.7,0.3c0.3,0.1,0.5,0.2,0.8,0.3c0.3,0.1,0.6,0.1,0.9,0.1c0.5,0,0.9-0.1,1.2-0.3
		c0.3-0.2,0.4-0.4,0.4-0.8c0-0.2-0.1-0.4-0.2-0.5c-0.1-0.1-0.3-0.3-0.5-0.4c-0.2-0.1-0.4-0.2-0.7-0.3c-0.3-0.1-0.6-0.2-1-0.3
		c-0.4-0.1-0.8-0.2-1.1-0.3c-0.3-0.1-0.6-0.3-0.8-0.4c-0.2-0.2-0.4-0.4-0.5-0.6c-0.1-0.2-0.2-0.5-0.2-0.8c0-0.4,0.1-0.8,0.2-1.1
		c0.2-0.3,0.4-0.6,0.6-0.8c0.3-0.2,0.6-0.4,1-0.5c0.4-0.1,0.8-0.2,1.2-0.2c0.6,0,1.1,0.1,1.6,0.3c0.5,0.2,0.9,0.4,1.3,0.7L85,40.5z
		 M78.7,45.7v1.2H73v-8.4h5.6v1.2h-4.3v2.4h3.7v1.1h-3.7v2.6H78.7z M64.3,42.7c0-0.5,0.1-1,0.3-1.5c0.2-0.5,0.4-0.9,0.8-1.3
		c0.4-0.4,0.8-0.7,1.3-1c0.5-0.2,1.1-0.4,1.7-0.4c0.8,0,1.4,0.2,2,0.5c0.5,0.3,1,0.8,1.2,1.3l-1,0.7c-0.1-0.3-0.3-0.5-0.4-0.6
		c-0.2-0.2-0.3-0.3-0.5-0.4c-0.2-0.1-0.4-0.2-0.6-0.2c-0.2,0-0.4-0.1-0.6-0.1c-0.4,0-0.8,0.1-1.2,0.3c-0.3,0.2-0.6,0.4-0.8,0.7
		c-0.2,0.3-0.4,0.6-0.5,1c-0.1,0.4-0.2,0.7-0.2,1.1c0,0.4,0.1,0.8,0.2,1.2c0.1,0.4,0.3,0.7,0.6,1c0.2,0.3,0.5,0.5,0.9,0.7
		c0.3,0.2,0.7,0.3,1.1,0.3c0.2,0,0.4,0,0.6-0.1c0.2-0.1,0.4-0.1,0.6-0.2c0.2-0.1,0.4-0.3,0.6-0.4c0.2-0.2,0.3-0.4,0.4-0.6l1.1,0.6
		c-0.1,0.3-0.3,0.6-0.6,0.8c-0.2,0.2-0.5,0.4-0.8,0.6c-0.3,0.2-0.6,0.3-1,0.4c-0.3,0.1-0.7,0.1-1,0.1c-0.6,0-1.1-0.1-1.6-0.4
		c-0.5-0.3-0.9-0.6-1.3-1c-0.4-0.4-0.6-0.9-0.8-1.4C64.4,43.7,64.3,43.2,64.3,42.7 M56.6,42.7c0,0.4,0.1,0.8,0.2,1.1
		c0.1,0.4,0.3,0.7,0.5,1c0.2,0.3,0.5,0.5,0.8,0.7c0.3,0.2,0.7,0.3,1.1,0.3c0.4,0,0.8-0.1,1.1-0.3c0.3-0.2,0.6-0.4,0.8-0.7
		c0.2-0.3,0.4-0.6,0.5-1c0.1-0.4,0.2-0.7,0.2-1.1c0-0.4-0.1-0.8-0.2-1.2c-0.1-0.4-0.3-0.7-0.5-1c-0.2-0.3-0.5-0.5-0.8-0.7
		c-0.3-0.2-0.7-0.3-1.1-0.3c-0.4,0-0.8,0.1-1.1,0.3c-0.3,0.2-0.6,0.4-0.8,0.7c-0.2,0.3-0.4,0.6-0.5,1C56.7,42,56.6,42.3,56.6,42.7
		 M59.3,47c-0.6,0-1.1-0.1-1.6-0.4c-0.5-0.2-0.9-0.6-1.3-1c-0.4-0.4-0.6-0.9-0.8-1.4c-0.2-0.5-0.3-1-0.3-1.6c0-0.6,0.1-1.1,0.3-1.6
		c0.2-0.5,0.5-1,0.8-1.4c0.4-0.4,0.8-0.7,1.3-0.9c0.5-0.2,1-0.3,1.6-0.3c0.6,0,1.1,0.1,1.6,0.4c0.5,0.2,0.9,0.6,1.3,1
		c0.4,0.4,0.6,0.9,0.8,1.4c0.2,0.5,0.3,1,0.3,1.6c0,0.6-0.1,1.1-0.3,1.6c-0.2,0.5-0.5,1-0.8,1.4c-0.4,0.4-0.8,0.7-1.3,0.9
		C60.4,46.9,59.9,47,59.3,47 M49.2,42.8h2.3c0.2,0,0.4,0,0.5-0.1c0.2-0.1,0.3-0.2,0.4-0.3c0.1-0.1,0.2-0.3,0.3-0.5
		c0.1-0.2,0.1-0.4,0.1-0.6c0-0.2,0-0.4-0.1-0.6c-0.1-0.2-0.2-0.4-0.3-0.5c-0.1-0.1-0.3-0.3-0.4-0.3c-0.2-0.1-0.3-0.1-0.5-0.1h-2.2
		V42.8z M47.9,46.9v-8.4h3.6c0.4,0,0.7,0.1,1,0.2c0.3,0.2,0.6,0.4,0.8,0.6c0.2,0.3,0.4,0.5,0.5,0.9c0.1,0.3,0.2,0.7,0.2,1
		c0,0.3,0,0.6-0.1,0.8c-0.1,0.3-0.2,0.5-0.3,0.7c-0.1,0.2-0.3,0.4-0.5,0.6c-0.2,0.2-0.4,0.3-0.7,0.4l2,3.2H53L51.2,44h-1.9v2.9H47.9
		z M41.8,42.8h2.2c0.2,0,0.4,0,0.5-0.1c0.2-0.1,0.3-0.2,0.4-0.3c0.1-0.1,0.2-0.3,0.3-0.5c0.1-0.2,0.1-0.4,0.1-0.6
		c0-0.2,0-0.4-0.1-0.6c-0.1-0.2-0.2-0.4-0.3-0.5c-0.1-0.1-0.3-0.2-0.4-0.3c-0.2-0.1-0.3-0.1-0.5-0.1h-2.1V42.8z M40.4,46.9v-8.4H44
		c0.4,0,0.7,0.1,1,0.2c0.3,0.2,0.6,0.4,0.8,0.6c0.2,0.3,0.4,0.5,0.5,0.9c0.1,0.3,0.2,0.7,0.2,1c0,0.4-0.1,0.7-0.2,1
		c-0.1,0.3-0.3,0.6-0.5,0.9c-0.2,0.3-0.5,0.5-0.8,0.6c-0.3,0.2-0.7,0.2-1,0.2h-2.3v2.9H40.4z"/>
</g>
</svg>
